<svg width="250" height="260" viewBox="0 0 250 260" fill="none" xmlns="http://www.w3.org/2000/svg">
<path d="M227.501 59.3575L227.291 59.2275L134.521 14.6175C128.411 11.1275 120.901 11.1275 114.791 14.6175L22.2512 59.1275L21.8012 59.3575C15.4412 63.1075 11.7812 69.7575 12.0112 77.1375C12.2412 84.5275 16.3212 90.9275 22.9112 94.2775L22.9612 94.2975L23.3212 94.4775L36.6712 100.147L116.621 134.087C116.701 134.127 124.621 138.197 132.771 134.067L132.891 134.007L212.641 100.147L225.961 94.4975L226.351 94.2975L226.401 94.2775C232.991 90.9275 237.061 84.5275 237.301 77.1375C237.531 69.7575 233.871 63.1075 227.501 59.3575ZM101.901 112.357C101.261 113.797 99.8812 114.687 98.4112 114.747C97.8112 114.767 97.2112 114.668 96.6312 114.408L33.3012 86.5475C31.2812 85.6575 30.3612 83.2975 31.2512 81.2775C32.1412 79.2575 34.5012 78.3375 36.5212 79.2275L99.8512 107.087C101.871 107.977 102.791 110.337 101.901 112.357ZM139.801 120.237C136.761 120.237 134.291 117.768 134.291 114.728C134.291 111.688 136.761 109.228 139.801 109.228C142.841 109.228 145.301 111.698 145.301 114.728C145.301 117.758 142.841 120.237 139.801 120.237Z" fill="#246DB4"/>
<path d="M226.381 94.3176L225.961 94.4976L226.351 94.2976L226.381 94.3176Z" fill="#246DB4"/>
<path d="M230.341 96.9775L216.931 102.678L173.061 121.298L134.511 137.668C131.131 139.368 127.811 139.938 124.901 139.938C119.531 139.938 115.511 138.008 114.831 137.658L76.0414 121.198L32.3814 102.668L18.9714 96.9775C14.3714 100.858 11.8214 106.548 12.0114 112.748C12.2414 120.138 16.3114 126.538 22.9114 129.888L23.6914 130.288L23.8514 130.368L23.9114 130.388L33.9514 134.338L116.621 166.828C116.701 166.868 124.621 170.938 132.771 166.808L132.891 166.758L215.351 134.318L225.491 130.338L225.521 130.318L225.601 130.278L226.401 129.878C232.991 126.538 237.071 120.138 237.301 112.748C237.491 106.548 234.941 100.858 230.341 96.9775ZM100.681 146.498C100.061 147.948 98.6914 148.848 97.2214 148.928C96.6214 148.958 96.0214 148.858 95.4314 148.618L33.2014 122.088C31.1714 121.228 30.2314 118.878 31.0914 116.838C31.9614 114.808 34.3114 113.868 36.3414 114.728L98.5714 141.258C100.601 142.118 101.551 144.468 100.681 146.498ZM139.801 156.168C136.761 156.168 134.291 153.708 134.291 150.668C134.291 147.628 136.761 145.158 139.801 145.158C142.841 145.158 145.301 147.628 145.301 150.668C145.301 153.708 142.841 156.168 139.801 156.168Z" fill="#246DB4"/>
<path d="M23.3212 94.4776L22.9312 94.3176L22.9612 94.2976L23.3212 94.4776Z" fill="#246DB4"/>
<path d="M23.6909 130.288H23.6709L23.8509 130.368L23.6909 130.288ZM225.601 130.278L225.521 130.318L225.611 130.288H225.601V130.278Z" fill="#246DB4"/>
<path d="M229.771 132.948L215.801 138.438L187.701 149.488L187.671 149.508L134.511 170.408C131.131 172.108 127.811 172.688 124.901 172.688C119.531 172.688 115.511 170.748 114.831 170.408L61.7911 149.568L61.6511 149.508L33.4911 138.448L19.5211 132.958C14.5711 136.848 11.8011 142.738 12.0111 149.188C12.2211 155.488 15.2111 161.078 20.1911 164.648C20.2211 164.668 20.2411 164.688 20.2711 164.698L20.3011 164.718L34.3411 170.138L116.621 201.938C116.701 201.978 124.621 206.038 132.771 201.918L132.891 201.858L214.971 170.148L229.011 164.728H229.021C229.021 164.728 229.081 164.678 229.111 164.658C234.091 161.088 237.091 155.498 237.301 149.188C237.501 142.738 234.731 136.838 229.771 132.948ZM99.8311 180.908C99.2411 182.368 97.8911 183.298 96.4211 183.408C95.8211 183.458 95.2111 183.368 94.6311 183.128L33.0311 158.408C30.9811 157.588 29.9811 155.258 30.8111 153.208C31.6311 151.158 33.9611 150.168 36.0111 150.988L97.6111 175.708C99.6611 176.528 100.651 178.858 99.8311 180.908ZM139.801 190.078C136.761 190.078 134.291 187.618 134.291 184.578C134.291 181.538 136.761 179.078 139.801 179.078C142.841 179.078 145.301 181.538 145.301 184.578C145.301 187.618 142.841 190.078 139.801 190.078Z" fill="#246DB4"/>
<path d="M229.131 164.677L229.021 164.717C229.021 164.717 229.081 164.677 229.111 164.657C229.121 164.657 229.121 164.667 229.131 164.677Z" fill="#246DB4"/>
<path d="M20.2714 164.697L20.1714 164.667C20.1714 164.667 20.1814 164.647 20.1914 164.647C20.2214 164.667 20.2414 164.687 20.2714 164.697Z" fill="#246DB4"/>
<path d="M232.441 167.677L219.361 172.737L195.621 181.907H195.601L134.511 205.517C131.131 207.217 127.811 207.787 124.901 207.787C119.531 207.787 115.511 205.857 114.831 205.507L53.6513 181.877L29.9513 172.727L16.8713 167.667C13.6013 171.387 11.8413 176.207 12.0113 181.387C12.2513 188.767 16.3213 195.167 22.9113 198.507L115.661 245.507C118.471 246.927 121.561 247.637 124.651 247.637C127.741 247.637 130.831 246.927 133.651 245.507L226.401 198.507C232.991 195.167 237.061 188.767 237.301 181.387C237.461 176.207 235.711 171.387 232.441 167.677ZM97.2713 214.927C96.6513 216.377 95.2813 217.277 93.8113 217.357C93.2113 217.387 92.6013 217.297 92.0213 217.047L33.2413 192.067C31.2013 191.207 30.2613 188.857 31.1213 186.817C31.9813 184.787 34.3313 183.847 36.3713 184.707L95.1513 209.677C97.1813 210.547 98.1313 212.897 97.2713 214.927ZM139.801 228.457C136.761 228.457 134.291 225.987 134.291 222.957C134.291 219.927 136.761 217.447 139.801 217.447C142.841 217.447 145.301 219.917 145.301 222.957C145.301 225.997 142.841 228.457 139.801 228.457Z" fill="#246DB4"/>
</svg>
