<svg width="824" height="260" viewBox="0 0 824 260" fill="none" xmlns="http://www.w3.org/2000/svg">
<path d="M227.501 59.3575L227.291 59.2275L134.521 14.6175C128.411 11.1275 120.901 11.1275 114.791 14.6175L22.2512 59.1275L21.8012 59.3575C15.4412 63.1075 11.7812 69.7575 12.0112 77.1375C12.2412 84.5275 16.3212 90.9275 22.9112 94.2775L22.9612 94.2975L23.3212 94.4775L36.6712 100.147L116.621 134.087C116.701 134.127 124.621 138.197 132.771 134.067L132.891 134.007L212.641 100.147L225.961 94.4975L226.351 94.2975L226.401 94.2775C232.991 90.9275 237.061 84.5275 237.301 77.1375C237.531 69.7575 233.871 63.1075 227.501 59.3575ZM101.901 112.357C101.261 113.797 99.8812 114.687 98.4112 114.747C97.8112 114.767 97.2112 114.668 96.6312 114.408L33.3012 86.5475C31.2812 85.6575 30.3612 83.2975 31.2512 81.2775C32.1412 79.2575 34.5012 78.3375 36.5212 79.2275L99.8512 107.087C101.871 107.977 102.791 110.337 101.901 112.357ZM139.801 120.237C136.761 120.237 134.291 117.768 134.291 114.728C134.291 111.688 136.761 109.228 139.801 109.228C142.841 109.228 145.301 111.698 145.301 114.728C145.301 117.758 142.841 120.237 139.801 120.237Z" fill="#246DB4"/>
<path d="M226.381 94.3175L225.961 94.4975L226.351 94.2975L226.381 94.3175Z" fill="#246DB4"/>
<path d="M230.341 96.9775L216.931 102.678L173.061 121.298L134.511 137.668C131.131 139.368 127.811 139.938 124.901 139.938C119.531 139.938 115.511 138.008 114.831 137.658L76.0414 121.198L32.3814 102.668L18.9714 96.9775C14.3714 100.858 11.8214 106.548 12.0114 112.748C12.2414 120.138 16.3114 126.538 22.9114 129.888L23.6914 130.288L23.8514 130.368L23.9114 130.388L33.9514 134.338L116.621 166.828C116.701 166.868 124.621 170.938 132.771 166.808L132.891 166.758L215.351 134.318L225.491 130.338L225.521 130.318L225.601 130.278L226.401 129.878C232.991 126.538 237.071 120.138 237.301 112.748C237.491 106.548 234.941 100.858 230.341 96.9775ZM100.681 146.498C100.061 147.948 98.6914 148.848 97.2214 148.928C96.6214 148.958 96.0214 148.858 95.4314 148.618L33.2014 122.088C31.1714 121.228 30.2314 118.878 31.0914 116.838C31.9614 114.808 34.3114 113.868 36.3414 114.728L98.5714 141.258C100.601 142.118 101.551 144.468 100.681 146.498ZM139.801 156.168C136.761 156.168 134.291 153.708 134.291 150.668C134.291 147.628 136.761 145.158 139.801 145.158C142.841 145.158 145.301 147.628 145.301 150.668C145.301 153.708 142.841 156.168 139.801 156.168Z" fill="#246DB4"/>
<path d="M23.3212 94.4775L22.9312 94.3175L22.9612 94.2975L23.3212 94.4775Z" fill="#246DB4"/>
<path d="M23.6909 130.287H23.6709L23.8509 130.367L23.6909 130.287ZM225.601 130.277L225.521 130.317L225.611 130.287H225.601V130.277Z" fill="#246DB4"/>
<path d="M229.771 132.948L215.801 138.438L187.701 149.488L187.671 149.508L134.511 170.408C131.131 172.108 127.811 172.688 124.901 172.688C119.531 172.688 115.511 170.748 114.831 170.408L61.7911 149.568L61.6511 149.508L33.4911 138.448L19.5211 132.958C14.5711 136.848 11.8011 142.738 12.0111 149.188C12.2211 155.488 15.2111 161.078 20.1911 164.648C20.2211 164.668 20.2411 164.688 20.2711 164.698L20.3011 164.718L34.3411 170.138L116.621 201.938C116.701 201.978 124.621 206.038 132.771 201.918L132.891 201.858L214.971 170.148L229.011 164.728H229.021C229.021 164.728 229.081 164.678 229.111 164.658C234.091 161.088 237.091 155.498 237.301 149.188C237.501 142.738 234.731 136.838 229.771 132.948ZM99.8311 180.908C99.2411 182.368 97.8911 183.298 96.4211 183.408C95.8211 183.458 95.2111 183.368 94.6311 183.128L33.0311 158.408C30.9811 157.588 29.9811 155.258 30.8111 153.208C31.6311 151.158 33.9611 150.168 36.0111 150.988L97.6111 175.708C99.6611 176.528 100.651 178.858 99.8311 180.908ZM139.801 190.078C136.761 190.078 134.291 187.618 134.291 184.578C134.291 181.538 136.761 179.078 139.801 179.078C142.841 179.078 145.301 181.538 145.301 184.578C145.301 187.618 142.841 190.078 139.801 190.078Z" fill="#246DB4"/>
<path d="M229.131 164.677L229.021 164.717C229.021 164.717 229.081 164.677 229.111 164.657C229.121 164.657 229.121 164.667 229.131 164.677Z" fill="#246DB4"/>
<path d="M20.2714 164.697L20.1714 164.667C20.1714 164.667 20.1814 164.647 20.1914 164.647C20.2214 164.667 20.2414 164.687 20.2714 164.697Z" fill="#246DB4"/>
<path d="M232.441 167.677L219.361 172.737L195.621 181.907H195.601L134.511 205.517C131.131 207.217 127.811 207.787 124.901 207.787C119.531 207.787 115.511 205.857 114.831 205.507L53.6513 181.877L29.9513 172.727L16.8713 167.667C13.6013 171.387 11.8413 176.207 12.0113 181.387C12.2513 188.767 16.3213 195.167 22.9113 198.507L115.661 245.507C118.471 246.927 121.561 247.637 124.651 247.637C127.741 247.637 130.831 246.927 133.651 245.507L226.401 198.507C232.991 195.167 237.061 188.767 237.301 181.387C237.461 176.207 235.711 171.387 232.441 167.677ZM97.2713 214.927C96.6513 216.377 95.2813 217.277 93.8113 217.357C93.2113 217.387 92.6013 217.297 92.0213 217.047L33.2413 192.067C31.2013 191.207 30.2613 188.857 31.1213 186.817C31.9813 184.787 34.3313 183.847 36.3713 184.707L95.1513 209.677C97.1813 210.547 98.1313 212.897 97.2713 214.927ZM139.801 228.457C136.761 228.457 134.291 225.987 134.291 222.957C134.291 219.927 136.761 217.447 139.801 217.447C142.841 217.447 145.301 219.917 145.301 222.957C145.301 225.997 142.841 228.457 139.801 228.457Z" fill="#246DB4"/>
<path d="M335.332 90.0529C343.562 98.2929 347.682 108.233 347.682 119.883C347.682 131.533 343.582 141.463 335.372 149.653L344.652 158.803L339.172 163.813L329.722 154.503C322.422 159.543 314.342 162.063 305.492 162.063C293.842 162.063 283.892 157.943 275.662 149.713C267.422 141.483 263.312 131.533 263.312 119.883C263.312 108.233 267.432 98.2829 275.662 90.0529C283.892 81.8229 293.842 77.7029 305.492 77.7029C317.142 77.7029 327.092 81.8229 335.322 90.0529H335.332ZM305.522 154.143C312.132 154.143 318.262 152.353 323.942 148.783L306.212 131.303L311.692 126.293L329.672 144.023C336.252 137.343 339.542 129.293 339.542 119.893C339.542 110.493 336.222 102.343 329.582 95.6529C322.942 88.9729 314.922 85.6329 305.522 85.6329C296.122 85.6329 288.102 88.9729 281.462 95.6529C274.822 102.333 271.502 110.413 271.502 119.893C271.502 129.373 274.822 137.453 281.472 144.133C288.112 150.813 296.142 154.153 305.542 154.153L305.522 154.143Z" fill="white"/>
<path d="M402.682 102.403H410.372V160.663H402.682V151.573C398.332 158.563 391.802 162.063 383.102 162.063C376.032 162.063 370.462 159.903 366.382 155.593C362.302 151.283 360.262 145.473 360.262 138.173V102.403H367.952V138.173C367.952 143.383 369.332 147.423 372.092 150.293C374.852 153.163 378.752 154.603 383.802 154.603C389.392 154.603 393.942 152.833 397.432 149.303C400.932 145.773 402.672 140.313 402.672 132.933V102.403H402.682Z" fill="white"/>
<path d="M453.601 101.013C462.221 101.013 469.191 104.063 474.521 110.163C479.841 116.263 482.501 123.463 482.501 131.783C482.501 132.643 482.421 133.843 482.271 135.393H431.121C431.901 141.293 434.401 145.983 438.641 149.433C442.871 152.893 448.101 154.623 454.311 154.623C458.741 154.623 462.561 153.713 465.791 151.883C469.011 150.063 471.441 147.673 473.071 144.713L479.831 148.673C477.271 152.793 473.771 156.053 469.341 158.463C464.911 160.873 459.861 162.073 454.191 162.073C445.021 162.073 437.571 159.203 431.821 153.453C426.071 147.703 423.201 140.403 423.201 131.543C423.201 122.683 426.031 115.583 431.711 109.753C437.381 103.923 444.681 101.013 453.621 101.013H453.601ZM453.601 108.463C447.541 108.463 442.471 110.273 438.391 113.883C434.311 117.493 431.881 122.173 431.111 127.923H474.571C473.791 121.783 471.421 117.013 467.461 113.593C463.501 110.173 458.881 108.463 453.591 108.463H453.601Z" fill="white"/>
<path d="M502.431 112.083C506.001 105.013 512.141 101.483 520.841 101.483V108.943C515.561 108.943 511.171 110.493 507.671 113.603C504.171 116.713 502.431 121.603 502.431 128.283V160.673H494.741V102.413H502.431V112.083Z" fill="white"/>
<path d="M574.441 102.403H582.601L557.661 166.023C555.411 171.773 552.201 176.293 548.051 179.593C543.901 182.893 539.251 184.353 534.131 183.963V176.743C541.111 177.523 546.421 173.473 550.061 164.613L551.531 160.853L525.501 102.403H533.661L555.471 150.803L574.441 102.403Z" fill="white"/>
<path d="M591.912 160.673V75.6129H599.602V160.673H591.912Z" fill="white"/>
<path d="M623.721 88.4229C622.631 89.5129 621.311 90.0529 619.761 90.0529C618.211 90.0529 616.891 89.5129 615.801 88.4229C614.711 87.3329 614.171 86.0129 614.171 84.4629C614.171 82.9129 614.711 81.5929 615.801 80.5029C616.891 79.4129 618.211 78.8729 619.761 78.8729C621.311 78.8729 622.631 79.4129 623.721 80.5029C624.811 81.5929 625.351 82.9129 625.351 84.4629C625.351 86.0129 624.811 87.3329 623.721 88.4229ZM615.921 160.673V102.413H623.611V160.673H615.921Z" fill="white"/>
<path d="M670.802 109.863H654.022V145.173C654.022 148.363 654.642 150.633 655.882 151.993C657.122 153.353 658.992 154.053 661.472 154.093C663.962 154.133 667.062 154.073 670.792 153.923V160.683C662.632 161.923 656.522 161.343 652.442 158.933C648.362 156.523 646.322 151.943 646.322 145.183V109.873H634.092V102.413H646.322V88.4329L654.012 86.1029V102.413H670.792V109.873L670.802 109.863Z" fill="white"/>
<path d="M691.422 88.4229C690.332 89.5129 689.012 90.0529 687.462 90.0529C685.912 90.0529 684.592 89.5129 683.502 88.4229C682.412 87.3329 681.872 86.0129 681.872 84.4629C681.872 82.9129 682.412 81.5929 683.502 80.5029C684.592 79.4129 685.912 78.8729 687.462 78.8729C689.012 78.8729 690.332 79.4129 691.422 80.5029C692.512 81.5929 693.052 82.9129 693.052 84.4629C693.052 86.0129 692.512 87.3329 691.422 88.4229ZM683.622 160.673V102.413H691.312V160.673H683.622Z" fill="white"/>
<path d="M734.772 162.063C725.992 162.063 718.692 159.133 712.862 153.263C707.032 147.403 704.122 140.153 704.122 131.533C704.122 122.913 707.032 115.663 712.862 109.803C718.692 103.943 725.992 101.003 734.772 101.003C740.522 101.003 745.682 102.383 750.272 105.143C754.852 107.903 758.192 111.613 760.292 116.273L754.002 119.883C752.452 116.383 749.942 113.613 746.482 111.553C743.022 109.493 739.122 108.463 734.772 108.463C728.322 108.463 722.882 110.693 718.462 115.163C714.032 119.633 711.822 125.083 711.822 131.533C711.822 137.983 714.032 143.443 718.462 147.903C722.892 152.373 728.322 154.603 734.772 154.603C739.122 154.603 743.002 153.573 746.422 151.513C749.842 149.453 752.522 146.673 754.462 143.183L760.872 146.913C758.462 151.573 754.932 155.263 750.272 157.983C745.612 160.703 740.442 162.063 734.772 162.063Z" fill="white"/>
<path d="M777.422 117.523C777.422 120.123 778.602 122.183 780.962 123.713C783.322 125.243 786.172 126.483 789.512 127.433C792.852 128.383 796.192 129.343 799.532 130.293C802.872 131.243 805.692 132.973 807.992 135.473C810.292 137.973 811.442 141.243 811.442 145.293C811.442 150.263 809.482 154.303 805.562 157.413C801.642 160.523 796.572 162.073 790.352 162.073C784.762 162.073 780.002 160.833 776.082 158.343C772.162 155.853 769.422 152.633 767.872 148.673L774.402 144.833C775.492 147.863 777.452 150.253 780.282 152.003C783.112 153.753 786.472 154.623 790.362 154.623C794.252 154.623 797.352 153.863 799.922 152.353C802.482 150.843 803.762 148.493 803.762 145.313C803.762 142.673 802.592 140.583 800.262 139.023C797.932 137.473 795.092 136.213 791.752 135.263C788.412 134.313 785.072 133.353 781.732 132.403C778.392 131.453 775.562 129.753 773.232 127.303C770.902 124.853 769.732 121.653 769.732 117.693C769.732 112.953 771.612 108.993 775.382 105.803C779.152 102.623 783.902 101.023 789.652 101.023C794.392 101.023 798.542 102.093 802.122 104.223C805.692 106.363 808.332 109.253 810.042 112.903L803.632 116.633C801.382 111.193 796.722 108.473 789.652 108.473C786.312 108.473 783.432 109.253 781.032 110.823C778.622 112.393 777.422 114.623 777.422 117.523Z" fill="white"/>
</svg>
